<svg width="257" height="36" viewBox="0 0 257 36" fill="none" xmlns="http://www.w3.org/2000/svg">
<g filter="url(#filter0_d)">
<path d="M1 7C1 3.68629 3.68629 1 7 1H248C251.314 1 254 3.68629 254 7V27C254 30.3137 251.314 33 248 33H7.00001C3.6863 33 1 30.3137 1 27V7Z" fill="#E09143"/>
<path d="M7 2H248V0H7V2ZM253 7V27H255V7H253ZM248 32H7.00001V34H248V32ZM2 27V7H0V27H2ZM7.00001 32C4.23858 32 2 29.7614 2 27H0C0 30.866 3.13401 34 7.00001 34V32ZM253 27C253 29.7614 250.761 32 248 32V34C251.866 34 255 30.866 255 27H253ZM248 2C250.761 2 253 4.23858 253 7H255C255 3.13401 251.866 0 248 0V2ZM7 0C3.13401 0 0 3.13401 0 7H2C2 4.23858 4.23858 2 7 2V0Z" fill="#E09143"/>
</g>
<defs>
<filter id="filter0_d" x="0" y="0" width="257" height="36" filterUnits="userSpaceOnUse" color-interpolation-filters="sRGB">
<feFlood flood-opacity="0" result="BackgroundImageFix"/>
<feColorMatrix in="SourceAlpha" type="matrix" values="0 0 0 0 0 0 0 0 0 0 0 0 0 0 0 0 0 0 127 0" result="hardAlpha"/>
<feOffset dx="1" dy="1"/>
<feGaussianBlur stdDeviation="1"/>
<feColorMatrix type="matrix" values="0 0 0 0 0 0 0 0 0 0 0 0 0 0 0 0 0 0 0.4 0"/>
<feBlend mode="normal" in2="BackgroundImageFix" result="effect1_dropShadow"/>
<feBlend mode="normal" in="SourceGraphic" in2="effect1_dropShadow" result="shape"/>
</filter>
</defs>
</svg>
