<?xml version="1.0" encoding="utf-8"?>
<!-- Generator: Adobe Illustrator 23.0.5, SVG Export Plug-In . SVG Version: 6.00 Build 0)  -->
<svg version="1.1" id="Layer_1" xmlns="http://www.w3.org/2000/svg" xmlns:xlink="http://www.w3.org/1999/xlink" x="0px" y="0px"
	 viewBox="0 0 630 170" style="enable-background:new 0 0 630 170;" xml:space="preserve">
<style type="text/css">
	.st0{fill:#E8D5AB;}
	.st1{fill:#DF8F3A;}
</style>
<g>
	<g>
		<path class="st0" d="M32.9,81v81.3H0V7.2h76.1v33.9H32.9v6.1h43.3V81H32.9z"/>
		<path class="st0" d="M123,128.5V7.2h32.9v124c0,8.6-3,15.9-8.9,22c-5.9,6.1-13.1,9.2-21.4,9.2h-10.9c-8.3,0-15.4-3.1-21.4-9.2
			c-5.9-6.1-8.9-13.5-8.9-22V7.2h32.9v121.3H123z"/>
		<path class="st0" d="M197.1,41.1v121.3h-32.9v-124c0-8.6,3-15.9,8.9-22c5.9-6.1,13.1-9.2,21.4-9.2h10.9c8.3,0,15.4,3.1,21.4,9.2
			c5.9,6.1,8.9,13.5,8.9,22v124h-32.9V41.1H197.1z"/>
		<path class="st0" d="M324.6,7.2L296.5,92c5.7,2.4,10.3,6.2,13.8,11.4c3.5,5.2,5.2,11.1,5.2,17.5v41.4h-32.9v-38.7h-5.7v38.7H244
			V7.2h32.9v39.4L290,7.2H324.6z"/>
		<path class="st0" d="M418.6,40.7h-19.7c-3.1,0-5.8,1.2-8,3.5c-2.2,2.3-3.4,5.1-3.4,8.3V117c0,12.5-4.3,23.2-12.9,32.1
			c-8.6,8.9-18.9,13.3-31.1,13.3h-19.7v-33.5h19.7c3.1,0,5.8-1.2,8-3.5c2.3-2.3,3.4-5.1,3.4-8.3V52.5c0-12.5,4.3-23.2,12.9-32.1
			c8.6-8.9,18.9-13.3,31.1-13.3h19.7V40.7z"/>
		<path class="st0" d="M426.9,162.3V7.2h32.9v155.2H426.9z"/>
		<path class="st0" d="M509.3,162.3h-10.9c-8.3,0-15.4-3.1-21.4-9.2c-5.9-6.1-8.9-13.5-8.9-22V38.4c0-8.6,3-15.9,8.9-22
			c5.9-6.1,13.1-9.2,21.4-9.2h10.9c8.3,0,15.4,3.1,21.4,9.2c5.9,6.1,8.9,13.5,8.9,22v92.7c0,8.6-3,15.9-8.9,22
			C524.7,159.3,517.6,162.3,509.3,162.3z M506.7,128.5V41.1H501v87.4H506.7z"/>
		<path class="st0" d="M580.7,41.1v121.3h-32.9v-124c0-8.6,3-15.9,8.9-22c5.9-6.1,13.1-9.2,21.4-9.2H589c8.3,0,15.4,3.1,21.4,9.2
			c5.9,6.1,8.9,13.5,8.9,22v124h-32.9V41.1H580.7z"/>
	</g>
</g>
<g>
	<g>
		<path class="st1" d="M43.6,81v81.3H10.7V7.2h76.1v33.9H43.6v6.1h43.3V81H43.6z"/>
		<path class="st1" d="M133.7,128.5V7.2h32.9v124c0,8.6-3,15.9-8.9,22c-5.9,6.1-13.1,9.2-21.4,9.2h-10.9c-8.3,0-15.4-3.1-21.4-9.2
			c-5.9-6.1-8.9-13.5-8.9-22V7.2H128v121.3H133.7z"/>
		<path class="st1" d="M207.8,41.1v121.3h-32.9v-124c0-8.6,3-15.9,8.9-22c5.9-6.1,13.1-9.2,21.4-9.2h10.9c8.3,0,15.4,3.1,21.4,9.2
			c5.9,6.1,8.9,13.5,8.9,22v124h-32.9V41.1H207.8z"/>
		<path class="st1" d="M335.3,7.2L307.2,92c5.7,2.4,10.3,6.2,13.8,11.4c3.5,5.2,5.2,11.1,5.2,17.5v41.4h-32.9v-38.7h-5.7v38.7h-32.9
			V7.2h32.9v39.4l13.2-39.4H335.3z"/>
		<path class="st1" d="M429.3,40.7h-19.7c-3.1,0-5.8,1.2-8,3.5c-2.2,2.3-3.4,5.1-3.4,8.3V117c0,12.5-4.3,23.2-12.9,32.1
			c-8.6,8.9-18.9,13.3-31.1,13.3h-19.7v-33.5h19.7c3.1,0,5.8-1.2,8-3.5c2.3-2.3,3.4-5.1,3.4-8.3V52.5c0-12.5,4.3-23.2,12.9-32.1
			c8.6-8.9,18.9-13.3,31.1-13.3h19.7V40.7z"/>
		<path class="st1" d="M437.6,162.3V7.2h32.9v155.2H437.6z"/>
		<path class="st1" d="M519.9,162.3H509c-8.3,0-15.4-3.1-21.4-9.2c-5.9-6.1-8.9-13.5-8.9-22V38.4c0-8.6,3-15.9,8.9-22
			c5.9-6.1,13.1-9.2,21.4-9.2h10.9c8.3,0,15.4,3.1,21.4,9.2c5.9,6.1,8.9,13.5,8.9,22v92.7c0,8.6-3,15.9-8.9,22
			C535.4,159.3,528.3,162.3,519.9,162.3z M517.4,128.5V41.1h-5.7v87.4H517.4z"/>
		<path class="st1" d="M591.4,41.1v121.3h-32.9v-124c0-8.6,3-15.9,8.9-22c5.9-6.1,13.1-9.2,21.4-9.2h10.9c8.3,0,15.4,3.1,21.4,9.2
			c5.9,6.1,8.9,13.5,8.9,22v124h-32.9V41.1H591.4z"/>
	</g>
</g>
</svg>
